<svg xmlns="http://www.w3.org/2000/svg" width="281" viewBox="0 0 281 37" height="37" fill="none"><g fill="#fff"><path d="m0 10.3377h19.974v4.3896h-13.94803v2.8571h13.61043v4.4156h-13.61043v7.6623h-6.02597z"></path><path d="m34.836 10h1.1169c12.1559 0 13.5844 6.1039 13.5844 9.5584v.7793c0 3.4026-1.4026 9.6623-13.5844 9.6623h-1.1169c-12.2337 0-13.6104-6.2597-13.6104-9.6623v-.7793c0-3.4545 1.3767-9.5584 13.6104-9.5584zm8.3637 10.1039v-.3636c0-2.2078-1.2728-5.065-7.8182-5.065-6.6494 0-7.8182 2.8572-7.8182 5.065v.3116c0 2.2078 1.2727 5.2468 7.8182 5.2468 6.4935 0 7.8182-2.961 7.8182-5.1948z"></path><path d="m63.9414 29.9481h-.9351c-10.3636 0-12.052-6.5975-12.052-10.2338v-9.3766h6.078v9.0129c0 2.4936 1.1168 5.5845 6.3896 5.5845 5.1948 0 6.3376-3.0909 6.3376-5.5845v-9.0129h6.052v9.3766c0 3.6363-1.974 10.2338-11.8701 10.2338z"></path><path d="m78.0124 10.3377h6.7532l12.3377 12.1558v-12.1558h5.9737v19.3246h-5.9737l-13.1169-12.8052v12.8052h-5.974z"></path><path d="m105.521 29.6623v-19.3246h12.806c11.194 0 13.636 4.8052 13.636 9.1428v.7792c0 4.1559-2.312 9.4026-13.61 9.4026zm6.052-14.7532v10.1039h6.286c6.857 0 7.766-3.013 7.766-4.987v-.1559c0-1.974-.805-4.961-7.766-4.961z"></path><path d="m147.573 21.7662-3.741-7.2467-3.584 7.2467zm4.052 7.8961-1.819-3.5324h-11.714l-1.74 3.5324h-6.156l9.766-19.3246h7.844l10.338 19.3246z"></path><path d="m162.543 29.6623v-14.7532h-8.311v-4.5714h22.753v4.5714h-8.338v14.7532z"></path><path d="m184.716 10.3377v19.3246h-6.052v-19.3246z"></path><path d="m199.98 10h1.117c12.156 0 13.584 6.1039 13.584 9.5584v.7793c0 3.4026-1.402 9.6623-13.584 9.6623h-1.117c-12.234 0-13.61-6.2597-13.61-9.6623v-.7793c0-3.4545 1.376-9.5584 13.61-9.5584zm8.364 10.1039v-.3636c0-2.2078-1.273-5.065-7.818-5.065-6.65 0-7.819 2.8572-7.819 5.065v.3116c0 2.2078 1.273 5.2468 7.819 5.2468 6.493 0 7.818-2.961 7.818-5.1948z"></path><path d="m216.332 10.3377h6.753l12.338 12.1558v-12.1558h5.974v19.3246h-5.974l-13.117-12.8052v12.8052h-5.974z"></path><path d="m255.945 30h-1.792c-10.13 0-11.299-4.3636-11.299-6.9091v-.2857h6.312c.078 1.1688.753 3.0649 5.74 3.0649h.364c5.091 0 5.662-1.013 5.662-2.0519 0-1.1169-.597-1.8182-5.065-1.9481l-3.324-.0779c-7.221-.2078-9.429-2.6493-9.429-5.6623v-.2338c0-2.8831 1.714-5.8961 10.52-5.8961h1.792c9.143 0 11.221 3.1948 11.221 6.1039v.2597h-6.286c-.13-.7272-.52-2.3117-5.585-2.3117h-.415c-4.676 0-5.013.8312-5.013 1.6624s.519 1.5844 4.467 1.6623l3.247.052c7.273.1298 10.208 1.8961 10.208 5.7402v.3637c0 3.1948-1.611 6.4675-11.325 6.4675z"></path><path d="m274.327 14v-4h1.779l1.382 2.4892 1.387-2.4892h1.715v4h-1.236v-2.7688l-1.576 2.7688h-.672l-1.575-2.7688v2.7688z"></path><path d="m270.99 14v-3.0538h-1.72v-.9462h4.709v.9462h-1.726v3.0538z"></path><path d="m89 6.97459v-6.854815h4.5422c3.971 0 4.8371 1.704485 4.8371 3.243135v.27641c0 1.47415-.82 3.33527-4.8279 3.33527zm2.1467-5.23325v3.58404h2.2297c2.4323 0 2.7548-1.06876 2.7548-1.76899v-.05528c0-.70022-.2856-1.75977-2.7548-1.75977z"></path><path d="m103.48 0h.397c4.311 0 4.818 2.16516 4.818 3.39055v.27641c0 1.20696-.497 3.4274-4.818 3.4274h-.397c-4.3392 0-4.8275-2.22044-4.8275-3.4274v-.27641c0-1.22539.4883-3.39055 4.8275-3.39055zm2.967 3.58403v-.12898c0-.78315-.451-1.79663-2.773-1.79663-2.359 0-2.773 1.01348-2.773 1.79663v.11056c0 .78314.451 1.86112 2.773 1.86112 2.303 0 2.773-1.05034 2.773-1.8427z"></path><path d="m113.97 7.09436h-.377c-3.971 0-4.589-2.22044-4.589-3.43662v-.26719c0-1.24381.535-3.39055 4.589-3.39055h.377c3.971 0 4.589 1.89797 4.589 2.69954v.10135h-2.276c-.055-.18427-.332-1.14247-2.506-1.14247-2.055 0-2.525.92135-2.525 1.7782v.11056c0 .81078.544 1.87955 2.543 1.87955 2.221 0 2.442-1.05955 2.497-1.21618h2.276v.10135c0 .86606-.682 2.78246-4.598 2.78246z"></path><path d="m123.653 7.07593h-.332c-3.676 0-4.275-2.34021-4.275-3.6301v-3.326055h2.156v3.197065c0 .8845.396 1.9809 2.266 1.9809 1.843 0 2.248-1.0964 2.248-1.9809v-3.197065h2.147v3.326055c0 1.28989-.7 3.6301-4.21 3.6301z"></path><path d="m128.644 6.97459v-6.854815h3.049l2.368 4.265835 2.377-4.265835h2.939v6.854815h-2.119v-4.74493l-2.699 4.74493h-1.152l-2.699-4.74493v4.74493z"></path><path d="m140.246.119775h7.224v1.557075h-5.105v1.01348h4.985v1.56629h-4.985v1.12404h5.197v1.59393h-7.316z"></path><path d="m148.268.119775h2.395l4.377 4.311895v-4.311895h2.119v6.854815h-2.119l-4.653-4.54224v4.54224h-2.119z"></path><path d="m160.707 6.97459v-5.23325h-2.948v-1.621565h8.07v1.621565h-2.957v5.23325z"></path><path d="m170.603 4.1737-1.327-2.57056-1.272 2.57056zm1.437 2.80089-.645-1.25303h-4.155l-.618 1.25303h-2.183l3.464-6.854815h2.783l3.667 6.854815z"></path><path d="m176.692 1.67685v1.34516h3.253c.617 0 .866-.29483.866-.67258v-.00921c0-.35933-.24-.66337-.866-.66337zm0 2.86538v2.43236h-2.147v-6.854815h5.529c2.285 0 2.976.792357 2.976 1.778195v.11056c0 .98584-.82 1.35438-1.272 1.5018.7.20269 1.299.69101 1.299 1.5755v1.00426c0 .55281.065.72787.129.83843v.04607h-2.183c-.065-.08292-.102-.18427-.102-.43304v-.79235c0-.83843-.368-1.20697-1.428-1.20697z"></path><path d="m186.28 6.97459v-2.65348l-3.667-4.201335h2.663l2.128 2.524485 2.165-2.524485h2.423l-3.565 4.201335v2.65348z"></path></g></svg>