<svg xmlns="http://www.w3.org/2000/svg" fill="none" viewBox="0 0 120 120" height="120" width="120">
<path fill="white" d="M20.5536 52.4465H26.2271C27.8973 52.4465 29.1982 52.7806 30.1046 53.4503C31.0211 54.1201 31.4811 55.0802 31.4811 56.3375C31.4811 57.0559 31.3167 57.6786 30.9876 58.2007C30.6586 58.7294 30.1735 59.1474 29.5289 59.4579C30.4185 59.7534 31.1 60.2217 31.5767 60.8629C32.0501 61.5041 32.2851 62.283 32.2851 63.1961C32.2851 64.0975 32.0551 64.873 31.5969 65.5125C31.1386 66.1605 30.484 66.6607 29.633 67.0132C28.7836 67.3657 27.7697 67.5419 26.578 67.5419H20.5519L20.5536 52.4465ZM13 73.4287H39.8571V46.5715H13V73.4287ZM25.9418 54.9644C27.5717 54.9644 28.3925 55.5636 28.3925 56.7605C28.3925 57.3799 28.1844 57.8633 27.7664 58.2074C27.3484 58.5532 26.7425 58.7244 25.9535 58.7244H23.6371V54.9644H25.9418ZM26.3312 61.0912H23.6119V65.1701H26.2809C27.1974 65.1701 27.904 64.9972 28.3959 64.6531C28.8894 64.3073 29.1361 63.8121 29.1361 63.1642C29.1361 61.7844 28.1978 61.0996 26.3161 61.0996L26.3312 61.0912Z"></path>
<path fill="white" d="M54.125 52.4465H59.7986C61.4687 52.4465 62.7696 52.7806 63.6761 53.4503C64.5926 54.1201 65.0525 55.0802 65.0525 56.3375C65.0525 57.0559 64.8882 57.6786 64.559 58.2007C64.23 58.7294 63.7432 59.1474 63.1003 59.4579C63.99 59.7534 64.6715 60.2217 65.1482 60.8629C65.6215 61.5041 65.8565 62.283 65.8565 63.1961C65.8565 64.0975 65.6266 64.873 65.1683 65.5125C64.7101 66.1605 64.0554 66.6607 63.2044 67.0132C62.355 67.3657 61.3412 67.5419 60.1494 67.5419H54.1233L54.125 52.4465ZM46.5714 73.4287H73.4286V46.5715H46.5714V73.4287ZM59.5132 54.9644C61.1431 54.9644 61.9639 55.5636 61.9639 56.7605C61.9639 57.3799 61.7558 57.8633 61.3378 58.2074C60.9199 58.5532 60.3139 58.7244 59.525 58.7244H57.2085V54.9644H59.5132ZM59.9026 61.0912H57.1834V65.1701H59.8523C60.7688 65.1701 61.4755 64.9972 61.9673 64.6531C62.4608 64.3073 62.7075 63.8121 62.7075 63.1642C62.7075 61.7844 61.7692 61.0996 59.8875 61.0996L59.9026 61.0912Z"></path>
<path fill="white" d="M97.2643 67.4194C98.0885 67.2196 98.8136 66.946 99.4464 66.6019V63.7316C98.1254 64.5457 96.6768 64.9536 95.1157 64.9536C94.0918 64.9536 93.2189 64.7605 92.4971 64.3745C91.7787 63.9884 91.2315 63.4261 90.8555 62.6791C90.4778 61.9405 90.2898 61.0459 90.2898 59.9934C90.2898 58.9443 90.4845 58.0462 90.8756 57.3245C91.2667 56.5926 91.8274 56.0336 92.5542 55.6476C93.2861 55.2615 94.1707 55.0685 95.2064 55.0685C95.96 55.0685 96.6785 55.1688 97.3549 55.3689C98.0364 55.5687 98.6693 55.8624 99.2517 56.2485V53.311C98.6122 52.9803 97.9189 52.7285 97.1703 52.5556C96.4233 52.3827 95.631 52.2971 94.7867 52.2971C93.5781 52.2971 92.4871 52.4767 91.5135 52.836C90.5399 53.1952 89.7006 53.7122 89.0124 54.3886C88.3158 55.0651 87.782 55.8759 87.4128 56.8226C87.0435 57.7676 86.8588 58.8201 86.8588 59.9951C86.8588 61.1969 87.0368 62.2779 87.3926 63.2347C87.7485 64.1949 88.2588 64.9972 88.9285 65.6686C89.5966 66.3317 90.414 66.8386 91.3792 67.1911C92.3461 67.5436 93.4271 67.7199 94.6356 67.7199C95.5454 67.7199 96.4149 67.6195 97.2374 67.4194H97.2643ZM107 73.4287H80.1429V46.5715H107V73.4287Z"></path>
</svg>
