<svg xmlns="http://www.w3.org/2000/svg" fill="none" viewBox="0 0 120 120" height="120" width="120">
<path fill="white" d="M116.863 58.1559L114.682 63.7108H114.616L112.341 58.1559H110.283L113.693 65.9212L111.744 70.2401H113.744L119.001 58.1559H116.863ZM101.449 53.5462H99.5439V66.3574H101.449V53.5462ZM94.2798 53.5462H89.6992V66.3574H91.6187V61.5078H94.2871C94.8251 61.5262 95.3613 61.4375 95.8648 61.247C96.3682 61.0564 96.8288 60.7678 97.2198 60.3978C97.6108 60.0278 97.9244 59.5838 98.1424 59.0916C98.3603 58.5994 98.4784 58.0688 98.4896 57.5306C98.4784 56.9915 98.3602 56.4599 98.1418 55.9668C97.9235 55.4738 97.6093 55.029 97.2177 54.6583C96.826 54.2876 96.3646 53.9984 95.8603 53.8075C95.356 53.6166 94.8187 53.5278 94.2798 53.5462ZM94.3307 59.7191H91.6187V55.3566H94.338C94.9165 55.3566 95.4713 55.5864 95.8803 55.9955C96.2894 56.4046 96.5192 56.9594 96.5192 57.5379C96.5192 58.1164 96.2894 58.6712 95.8803 59.0803C95.4713 59.4893 94.9165 59.7191 94.338 59.7191H94.3307ZM106.146 57.8796C105.448 57.8396 104.754 58.004 104.148 58.3527C103.542 58.7014 103.052 59.2192 102.736 59.8427L104.437 60.5698C104.606 60.2616 104.861 60.0093 105.171 59.8439C105.481 59.6786 105.832 59.6074 106.182 59.6392C106.422 59.6151 106.665 59.6387 106.896 59.7088C107.127 59.7788 107.342 59.8938 107.529 60.0472C107.715 60.2005 107.87 60.3893 107.983 60.6025C108.096 60.8157 108.166 61.0493 108.189 61.2896V61.4205C107.579 61.0908 106.897 60.9183 106.204 60.9188C104.379 60.9188 102.518 61.9222 102.518 63.8272C102.518 65.5431 104.008 66.6483 105.695 66.6483C106.175 66.6787 106.654 66.5785 107.082 66.3583C107.51 66.1381 107.87 65.8061 108.124 65.3977H108.196V66.3865H110.058V61.4569C110.058 59.1811 108.356 57.916 106.16 57.916L106.146 57.8796ZM105.92 64.9033C105.295 64.9033 104.423 64.5833 104.423 63.8126C104.423 62.8238 105.506 62.4457 106.451 62.4457C107.061 62.4294 107.664 62.5776 108.196 62.8747C108.126 63.4307 107.857 63.9425 107.438 64.3154C107.02 64.6883 106.481 64.8971 105.92 64.9033ZM36.9782 66.6337C35.1689 66.6397 33.4302 65.9325 32.1386 64.6655C30.8471 63.3985 30.1068 61.6736 30.0781 59.8645C30.1068 58.0555 30.8471 56.3306 32.1386 55.0636C33.4302 53.7966 35.1689 53.0894 36.9782 53.0954C37.8403 53.081 38.6966 53.2389 39.4969 53.5598C40.2972 53.8806 41.0254 54.358 41.6388 54.964L40.3228 56.2655C39.4301 55.3908 38.2278 54.9047 36.9782 54.9131C35.6727 54.9131 34.4207 55.4317 33.4975 56.3548C32.5744 57.2779 32.0558 58.53 32.0558 59.8355C32.0558 61.141 32.5744 62.393 33.4975 63.3161C34.4207 64.2392 35.6727 64.7578 36.9782 64.7578C37.6135 64.7839 38.2472 64.6764 38.8384 64.4422C39.4295 64.208 39.9649 63.8523 40.41 63.3982C41.0018 62.7602 41.3583 61.9395 41.4207 61.0715H36.9782V59.2756H43.2311C43.2993 59.6571 43.331 60.0442 43.3256 60.4317C43.3884 62.0412 42.8106 63.61 41.7188 64.7942C41.1023 65.4169 40.3615 65.9026 39.5447 66.2195C38.7278 66.5365 37.8533 66.6776 36.9782 66.6337ZM52.9959 62.2712C53.0197 62.8528 52.9258 63.4332 52.7197 63.9776C52.5136 64.522 52.1996 65.019 51.7965 65.439C51.3935 65.8589 50.9097 66.1931 50.3742 66.4213C49.8388 66.6496 49.2627 66.7673 48.6806 66.7673C48.0985 66.7673 47.5225 66.6496 46.987 66.4213C46.4515 66.1931 45.9677 65.8589 45.5647 65.439C45.1616 65.019 44.8476 64.522 44.6415 63.9776C44.4354 63.4332 44.3415 62.8528 44.3654 62.2712C44.3415 61.6896 44.4354 61.1092 44.6415 60.5648C44.8476 60.0205 45.1616 59.5234 45.5647 59.1034C45.9677 58.6835 46.4515 58.3493 46.987 58.1211C47.5225 57.8928 48.0985 57.7751 48.6806 57.7751C49.2627 57.7751 49.8388 57.8928 50.3742 58.1211C50.9097 58.3493 51.3935 58.6835 51.7965 59.1034C52.1996 59.5234 52.5136 60.0205 52.7197 60.5648C52.9258 61.1092 53.0197 61.6896 52.9959 62.2712ZM51.1054 62.2712C51.1375 61.9334 51.0987 61.5927 50.9914 61.2708C50.8841 60.949 50.7108 60.653 50.4825 60.4021C50.2542 60.1511 49.976 59.9505 49.6657 59.8133C49.3554 59.6761 49.0199 59.6052 48.6806 59.6052C48.3413 59.6052 48.0058 59.6761 47.6955 59.8133C47.3852 59.9505 47.107 60.1511 46.8787 60.4021C46.6504 60.653 46.4771 60.949 46.3698 61.2708C46.2626 61.5927 46.2237 61.9334 46.2558 62.2712C46.2237 62.609 46.2626 62.9497 46.3698 63.2716C46.4771 63.5934 46.6504 63.8894 46.8787 64.1403C47.107 64.3913 47.3852 64.5919 47.6955 64.7291C48.0058 64.8663 48.3413 64.9372 48.6806 64.9372C49.0199 64.9372 49.3554 64.8663 49.6657 64.7291C49.976 64.5919 50.2542 64.3913 50.4825 64.1403C50.7108 63.8894 50.8841 63.5934 50.9914 63.2716C51.0987 62.9497 51.1375 62.609 51.1054 62.2712ZM62.6661 62.2712C62.6661 63.4147 62.2118 64.5114 61.4033 65.32C60.5947 66.1286 59.498 66.5828 58.3545 66.5828C57.211 66.5828 56.1143 66.1286 55.3057 65.32C54.4971 64.5114 54.0429 63.4147 54.0429 62.2712C54.0429 61.1277 54.4971 60.031 55.3057 59.2224C56.1143 58.4138 57.211 57.9596 58.3545 57.9596C59.498 57.9596 60.5947 58.4138 61.4033 59.2224C62.2118 60.031 62.6661 61.1277 62.6661 62.2712ZM60.783 62.2712C60.815 61.9334 60.7762 61.5927 60.6689 61.2708C60.5616 60.949 60.3883 60.653 60.16 60.4021C59.9317 60.1511 59.6535 59.9505 59.3432 59.8133C59.0329 59.6761 58.6974 59.6052 58.3581 59.6052C58.0188 59.6052 57.6833 59.6761 57.373 59.8133C57.0627 59.9505 56.7845 60.1511 56.5562 60.4021C56.3279 60.653 56.1546 60.949 56.0473 61.2708C55.9401 61.5927 55.9012 61.9334 55.9333 62.2712C55.9012 62.609 55.9401 62.9497 56.0473 63.2716C56.1546 63.5934 56.3279 63.8894 56.5562 64.1403C56.7845 64.3913 57.0627 64.5919 57.373 64.7291C57.6833 64.8663 58.0188 64.9372 58.3581 64.9372C58.6974 64.9372 59.0329 64.8663 59.3432 64.7291C59.6535 64.5919 59.9317 64.3913 60.16 64.1403C60.3883 63.8894 60.5616 63.5934 60.6689 63.2716C60.7762 62.9497 60.815 62.609 60.783 62.2712ZM72.1037 58.1777V66.0084C72.1037 69.2221 70.1914 70.5454 67.9375 70.5454C67.1113 70.5524 66.3015 70.3144 65.6105 69.8615C64.9195 69.4085 64.3781 68.761 64.0548 68.0006L65.7053 67.2736C65.8765 67.7175 66.1747 68.1011 66.5626 68.3765C66.9506 68.6519 67.4111 68.807 67.8866 68.8222C69.3408 68.8222 70.2278 67.9279 70.2278 66.2629V65.6376H70.1551C69.8699 65.9558 69.5199 66.2094 69.1286 66.3812C68.7374 66.553 68.3139 66.6391 67.8866 66.6337C66.7296 66.6337 65.6199 66.1741 64.8018 65.356C63.9837 64.5378 63.5241 63.4282 63.5241 62.2712C63.5241 61.1142 63.9837 60.0046 64.8018 59.1864C65.6199 58.3683 66.7296 57.9087 67.8866 57.9087C68.3167 57.8992 68.7439 57.9812 69.14 58.1491C69.5361 58.3171 69.892 58.5672 70.1842 58.883H70.2569V58.1559H72.1037V58.1777ZM70.4096 62.293C70.4363 61.964 70.3966 61.6329 70.2929 61.3194C70.1892 61.006 70.0236 60.7166 69.8059 60.4684C69.5882 60.2202 69.3229 60.0182 69.0257 59.8745C68.7284 59.7309 68.4054 59.6483 68.0756 59.6319C67.7394 59.643 67.4089 59.7211 67.1032 59.8615C66.7976 60.0019 66.523 60.2018 66.2955 60.4496C66.068 60.6974 65.8922 60.988 65.7784 61.3046C65.6646 61.6211 65.615 61.9571 65.6326 62.293C65.617 62.6266 65.6682 62.96 65.7832 63.2736C65.8982 63.5872 66.0746 63.8747 66.3021 64.1192C66.5297 64.3636 66.8038 64.5602 67.1083 64.6974C67.4129 64.8345 67.7417 64.9094 68.0756 64.9178C68.4034 64.9051 68.7252 64.8263 69.0218 64.6862C69.3184 64.5461 69.5836 64.3475 69.8015 64.1024C70.0195 63.8573 70.1857 63.5707 70.2902 63.2598C70.3947 62.9488 70.4353 62.62 70.4096 62.293ZM75.4701 53.5607V66.3647H73.5506V53.5607H75.4701ZM83.0318 63.7108L84.5296 64.6997C84.1297 65.2964 83.5886 65.7852 82.9544 66.1226C82.3202 66.46 81.6125 66.6356 80.8941 66.6337C80.3227 66.6419 79.7555 66.534 79.227 66.3167C78.6984 66.0993 78.2195 65.7769 77.8191 65.3691C77.4188 64.9613 77.1053 64.4764 76.8978 63.9439C76.6902 63.4115 76.5929 62.8424 76.6116 62.2712C76.5265 61.2892 76.8057 60.3103 77.396 59.5209C77.9863 58.7316 78.8465 58.1871 79.8125 57.9912C80.7785 57.7953 81.7828 57.9617 82.6339 58.4587C83.4851 58.9557 84.1236 59.7486 84.4278 60.6862L84.6241 61.1878L78.8074 63.5945C78.9886 64.0019 79.2877 64.3457 79.6661 64.5815C80.0446 64.8174 80.4849 64.9345 80.9305 64.9178C81.3543 64.9112 81.7695 64.7969 82.1371 64.5858C82.5046 64.3747 82.8125 64.0736 83.0318 63.7108ZM78.4439 62.1403L82.3556 60.5262C82.2042 60.2299 81.9692 59.9845 81.6797 59.8203C81.3902 59.6562 81.0589 59.5806 80.7269 59.6028C80.4094 59.6167 80.0979 59.6937 79.8105 59.8293C79.5231 59.9649 79.2657 60.1564 79.0531 60.3927C78.8406 60.6289 78.6772 60.9051 78.5726 61.2052C78.468 61.5053 78.4242 61.8232 78.4439 62.1403Z"></path>
<path fill="#909090" d="M10.8512 59.4795L1.09375 69.7023C1.20331 70.0906 1.40022 70.4488 1.6694 70.7493C1.93859 71.0499 2.27294 71.2849 2.64688 71.4365C3.02083 71.588 3.42447 71.6521 3.82696 71.6237C4.22945 71.5953 4.62012 71.4753 4.96912 71.2728L15.9481 65.0199L10.8512 59.4795Z"></path>
<path fill="#808080" d="M20.717 57.7415L15.9691 55.0222L10.625 59.7119L15.9909 65.0051L20.7024 62.3149C21.1198 62.0963 21.4694 61.7677 21.7134 61.3646C21.9573 60.9615 22.0863 60.4994 22.0863 60.0282C22.0863 59.557 21.9573 59.0949 21.7134 58.6918C21.4694 58.2887 21.1198 57.9601 20.7024 57.7415H20.717Z"></path>
<path fill="#9B9B9B" d="M1.08728 50.304C1.0283 50.522 0.99895 50.747 1.00003 50.9729V69.0337C1.00062 69.2595 1.02994 69.4842 1.08728 69.7026L11.1792 59.7415L1.08728 50.304Z"></path>
<path fill="#6E6E6E" d="M10.924 60.003L15.9699 55.0225L5.00547 48.7404C4.59299 48.4989 4.12384 48.3709 3.64582 48.3696C3.0685 48.3685 2.50664 48.5562 2.04589 48.904C1.58514 49.2519 1.25077 49.7409 1.09375 50.2964L10.924 60.003Z"></path>
</svg>
