<svg xmlns="http://www.w3.org/2000/svg" fill="none" viewBox="0 0 120 120" height="120" width="120">
<path fill="white" d="M43.4921 76.3224H34.7262V63.78H29.0359V76.3224H20V43.9963H29.0359V56.0213H34.7262V43.9963H43.4921V76.3224Z" clip-rule="evenodd" fill-rule="evenodd"></path>
<path fill="white" d="M83.6517 66.3902C87.2087 66.3902 90.0924 63.4999 90.0924 59.9337C90.0924 56.3683 87.2087 53.4776 83.6517 53.4776C80.0942 53.4776 77.2108 56.3683 77.2108 59.9337C77.2108 63.4999 80.0942 66.3902 83.6517 66.3902ZM75.4586 59.9337C75.4586 55.3982 79.1265 51.721 83.6517 51.721C88.1767 51.721 91.8453 55.3982 91.8453 59.9337C91.8453 64.4699 88.1767 68.1469 83.6517 68.1469C79.1265 68.1469 75.4586 64.4699 75.4586 59.9337ZM64.0501 59.9337C65.0639 59.805 66.7538 58.6431 67.3492 57.9014C67.1399 58.821 67.1239 61.4826 67.3685 62.4022C66.689 61.3536 65.0802 60.0628 64.0501 59.9337ZM58.1599 51.239C59.4474 51.239 60.4614 52.5131 60.4614 53.9651C60.4614 55.4171 59.4474 56.692 58.1599 56.692H53.7344V51.239H58.1599ZM58.1437 63.3538C59.4311 63.3538 60.4452 64.6285 60.4452 66.08C60.4452 67.5322 59.4311 68.8064 58.1437 68.8064H53.7183V63.3538H58.1437ZM83.6463 76.4816C92.6638 76.4781 100.002 68.9677 100 59.9273C99.9983 50.6962 92.6638 43.5254 83.6463 43.5186C74.6393 43.5121 70.0371 50.1581 68.9 52.8407C68.9106 48.8136 64.951 44.0604 60.3193 44.0553H45.3968V76.3209L59.3097 76.3237C64.919 76.3237 68.9104 71.4515 68.9173 67.2737C70.1977 69.9031 74.6393 76.4848 83.6463 76.4816Z" clip-rule="evenodd" fill-rule="evenodd"></path>
</svg>
