<svg xmlns="http://www.w3.org/2000/svg" fill="none" viewBox="0 0 120 120" height="120" width="120">
<path fill="white" d="M33.9018 56.0882C35.4581 57.3535 36.2374 59.3286 36.2374 62.0143V75.5012H28.8225V63.0068C28.8225 62.4622 28.6181 61.9851 28.2095 61.5764C27.8007 61.1676 27.3235 60.9634 26.779 60.9634H22.4585C21.913 60.9634 21.4459 61.1677 21.0573 61.5764C20.6678 61.9851 20.4734 62.4622 20.4734 63.0068V75.5012H13V44.4988H20.4733V54.5994C20.5901 54.561 20.8619 54.4826 21.2908 54.3658C21.7186 54.2491 22.2832 54.1907 22.9839 54.1907H27.7714C30.3012 54.1906 32.3447 54.8237 33.9018 56.0882ZM57.4311 54.1906H64.9044V67.2689C64.9044 69.721 64.2328 71.7061 62.8901 73.2241C61.5472 74.7421 59.7272 75.5012 57.4311 75.5012H50.0745C47.5056 75.5012 45.4521 74.7915 43.915 73.3702C42.3768 71.9498 41.6086 69.9164 41.6086 67.269V54.1907H49.0819V66.6851C49.0819 67.2307 49.2764 67.6977 49.6658 68.0864C50.0544 68.4759 50.5216 68.6702 51.0671 68.6702H55.3877C55.9322 68.6702 56.4093 68.4759 56.8181 68.0864C57.2269 67.6977 57.4311 67.2306 57.4311 66.6851V54.1906ZM70.5677 44.4988H78.0409V75.5012H70.5677V44.4988ZM107 54.1906V67.2689C107 69.721 106.328 71.7061 104.986 73.2241C103.643 74.7421 101.823 75.5012 99.5267 75.5012H92.2286C89.6204 75.5012 87.5476 74.7915 86.0106 73.3702C84.4724 71.9498 83.7044 69.9164 83.7044 67.269V54.1907H91.1776V66.6851C91.1776 67.2307 91.3718 67.6977 91.7615 68.0864C92.1502 68.4759 92.6172 68.6702 93.1626 68.6702H97.5415C98.0863 68.6702 98.5533 68.4759 98.9428 68.0864C99.3314 67.6977 99.5267 67.2306 99.5267 66.6851V54.1906H107Z"></path>
</svg>
