<svg xmlns="http://www.w3.org/2000/svg" fill="none" viewBox="0 0 120 120" height="120" width="120">
<path fill="white" d="M13 73.8107V46.1895H32.2741V73.8107H13ZM29.4851 71.0282V48.9717H15.7754V71.0282H29.4851Z"></path>
<path fill="white" d="M45.0807 58.5785H43.8882C42.3254 56.3688 40.769 54.1726 39.2196 51.6868V58.5785H37.8724V48.965H39.0647C40.6278 51.1612 42.1839 53.344 43.7199 55.8165V48.965H45.0673V58.5785H45.0807Z"></path>
<path fill="white" d="M48.207 54.779C48.591 53.5192 48.975 52.3469 49.3185 50.8649C49.7025 52.347 50.0462 53.5192 50.4032 54.779H48.207ZM48.8402 48.9718L45.5121 58.5785H46.9404L47.7757 55.9579H50.6726L51.427 58.5785H53.2662L50.2279 48.965H48.8807L48.8402 48.9718Z"></path>
<path fill="white" d="M54.8293 58.5785V50.2585H52.3029V48.9718H58.9859V50.2585H56.4597V58.5785H54.8092H54.8293Z"></path>
<path fill="white" d="M59.5445 58.5785V48.965H61.1815V58.5785H59.5445Z"></path>
<path fill="white" d="M66.2545 57.3524C64.5367 57.3524 63.9303 55.4593 63.9303 53.6201C63.9303 51.7809 64.604 50.1574 66.2545 50.1574C67.9051 50.1574 68.5721 51.8484 68.5721 53.6201C68.5721 55.392 67.9724 57.3524 66.2545 57.3524ZM66.2545 58.6998C68.7673 58.6998 70.3302 56.4632 70.3302 53.5933C70.3302 50.8986 68.5989 48.7562 66.2545 48.7562C63.9102 48.7562 62.1787 50.8986 62.1787 53.5933C62.1787 56.5035 63.7418 58.747 66.2545 58.747V58.6998Z"></path>
<path fill="white" d="M78.5226 58.5785H77.3302C75.7673 56.3688 74.211 54.1726 72.6616 51.6868V58.5785H71.3143V48.965H72.5067C74.0696 51.1612 75.6258 53.344 77.1617 55.8165V48.965H78.5091V58.5785H78.5226Z"></path>
<path fill="white" d="M81.6684 54.779C82.0525 53.5192 82.4365 52.3469 82.7799 50.8649C83.1639 52.347 83.5074 53.5192 83.8647 54.779H81.6414H81.6684ZM82.3017 48.9718L78.9804 58.5853H80.4086L81.244 55.9646H84.1409L84.8953 58.5853H86.7345L83.6692 48.9718H82.3017Z"></path>
<path fill="white" d="M87.2127 48.965H88.8499V57.285H92.1038V58.5785H87.2127V48.965Z"></path>
<path fill="white" d="M44.0636 66.6225V70.5904C43.1968 70.9564 42.2693 71.1574 41.3286 71.1832C38.499 71.1832 36.7136 68.987 36.7136 66.1576C36.7136 63.5368 38.499 61.2398 41.3824 61.2398C42.2166 61.2444 43.0295 61.5029 43.7134 61.9808L43.1812 63.1193C42.6488 62.801 42.0429 62.627 41.423 62.6141C39.6645 62.6141 38.4721 64.0019 38.4721 66.1846C38.4721 68.3673 39.8194 69.809 41.2612 69.809C41.6587 69.8263 42.0544 69.7451 42.4131 69.5732V66.6225H44.0636Z"></path>
<path fill="white" d="M49.9582 62.6947H47.2096V65.3289H49.9042V66.6225H47.2096V69.7281H50.45V71.0215H45.5591V61.3947H49.9516V62.6881L49.9582 62.6947Z"></path>
<path fill="white" d="M55.0383 69.8089C53.3204 69.8089 52.7208 67.9158 52.7208 66.0768C52.7208 64.2376 53.3945 62.6139 55.0383 62.6139C56.6821 62.6139 57.3626 64.3049 57.3626 66.0768C57.3625 67.8485 56.7562 69.8089 55.0383 69.8089ZM55.0383 71.1563C57.5511 71.1563 59.1141 68.9196 59.1141 66.0498C59.1141 63.3551 57.3827 61.2128 55.0383 61.2128C52.694 61.2128 50.9626 63.3551 50.9626 66.0498C50.9626 68.9466 52.5255 71.1832 55.0383 71.1832V71.1563Z"></path>
<path fill="white" d="M67.0296 66.6225V70.5904C66.1628 70.9564 65.2351 71.1574 64.2944 71.1832C61.465 71.1832 59.6796 68.987 59.6796 66.1576C59.6796 63.5368 61.465 61.2398 64.3484 61.2398C65.1825 61.2444 65.9955 61.5029 66.6793 61.9808L66.1472 63.1193C65.6148 62.801 65.0087 62.627 64.3887 62.6141C62.6305 62.6141 61.438 64.0019 61.438 66.1846C61.438 68.3673 62.7854 69.809 64.227 69.809C64.6246 69.8263 65.0202 69.7451 65.3791 69.5732V66.6225H67.0296Z"></path>
<path fill="white" d="M70.1895 62.6947H70.9171C71.6835 62.6188 72.3663 63.1786 72.4423 63.9451C72.4522 64.0447 72.4513 64.145 72.4398 64.2442C72.561 65.1703 71.9085 66.0192 70.9825 66.1404C70.9474 66.1449 70.9122 66.1485 70.8767 66.1508L70.203 66.1913V62.688L70.1895 62.6947ZM74.3665 71.0149L72.4599 67.0334C73.4961 66.4581 74.1347 65.3622 74.1239 64.1769C74.1239 62.3108 72.9853 61.4014 71.1462 61.4014H68.5795V71.0149H70.23V67.3903H70.9711L72.5204 71.0149H74.4002H74.3665Z"></path>
<path fill="white" d="M77.0815 67.2153C77.4655 65.9555 77.8495 64.7833 78.1932 63.3011C78.5771 64.7833 78.9206 65.9487 79.2776 67.2153H77.0546H77.0815ZM77.7147 61.3947L74.3935 71.0081H75.8285L76.6639 68.3873H79.5606L80.3151 71.0081H82.1543L79.0891 61.3947H77.7147Z"></path>
<path fill="white" d="M85.2594 61.3947H82.6926V71.0081H84.3432V67.3903H85.0844C86.8181 67.402 88.2331 66.0059 88.2446 64.2721C88.245 64.2403 88.2446 64.2085 88.2439 64.1769C88.2169 62.3107 87.0783 61.3947 85.2594 61.3947ZM85.0235 66.144L84.3498 66.1844V62.6881H85.0909C85.8581 62.6198 86.5354 63.1862 86.6039 63.9532C86.6123 64.048 86.6109 64.1432 86.6 64.2375C86.7241 65.167 86.0713 66.0209 85.1418 66.1448C85.0959 66.151 85.0498 66.1552 85.0034 66.1576L85.0235 66.144Z"></path>
<path fill="white" d="M95.8569 71.015H94.2064V66.3867H90.784V71.015H89.147V61.3947H90.784V65.0863H94.2064V61.4215H95.8569V71.015Z"></path>
<path fill="white" d="M97.4329 71.015V61.3947H99.07V71.0081H97.4329V71.015Z"></path>
<path fill="white" d="M106.481 63.1463C105.973 62.8251 105.39 62.6417 104.79 62.6141C103.113 62.6141 101.893 64.0018 101.893 66.1844C101.893 68.3671 103.241 69.809 104.831 69.809C105.415 69.8075 105.987 69.6418 106.481 69.3307L106.933 70.5232C106.285 70.9432 105.535 71.1762 104.763 71.1968C101.934 71.1968 100.149 69.0006 100.149 66.171C100.149 63.5505 101.92 61.2532 104.79 61.2532C105.584 61.2778 106.352 61.5356 107 61.9943L106.481 63.1463Z"></path>
</svg>
