<svg xmlns="http://www.w3.org/2000/svg" fill="none" viewBox="0 0 120 120" height="120" width="120">
<path fill="white" d="M25.9253 71.0644C24.5112 71.3127 23.0723 71.3872 21.5838 71.5855L17.0437 58.2881V72.1562C15.6297 72.305 14.3397 72.5034 13 72.7019V47.2979H16.771L21.9311 61.7119V47.2979H25.9253V71.0644ZM33.74 56.6011C35.2783 56.6011 37.6351 56.5267 39.0491 56.5267V60.4959C37.2876 60.4959 35.2286 60.4959 33.74 60.5704V66.475C36.0721 66.3262 38.4041 66.1275 40.7608 66.0531V69.8734L29.7706 70.7419V47.2979H40.7608V51.2672H33.74V56.6011ZM55.522 51.2673H51.4038V69.5265C50.0641 69.5265 48.7244 69.5265 47.4346 69.5759V51.2673H43.3164V47.2979H55.5221L55.522 51.2673ZM61.9722 56.3283H67.4053V60.2976H61.9722V69.3032H58.0769V47.2979H69.1667V51.2672H61.9722V56.3283ZM75.6169 65.8299C77.8746 65.8794 80.1569 66.0533 82.3649 66.1772V70.097C78.8174 69.8735 75.2697 69.6506 71.6476 69.5759V47.2979H75.6169V65.8299ZM85.7141 70.3699C86.9793 70.4444 88.319 70.5189 89.609 70.6675V47.2979H85.7141V70.3699ZM107 47.2979L101.964 59.3797L107 72.7019C105.511 72.5034 104.023 72.2305 102.534 71.9824L99.6814 64.6392L96.7791 71.3872C95.3399 71.1389 93.9506 71.0644 92.512 70.866L97.6225 59.2307L93.0079 47.2979H97.2749L99.8798 53.9714L102.658 47.2979L107 47.2979Z"></path>
</svg>
