<svg xmlns="http://www.w3.org/2000/svg" fill="none" viewBox="0 0 120 120" height="120" width="120">
<path fill="white" d="M100.158 49.0229C99.005 49.0229 97.2705 49.9854 97.2705 51.26C97.2705 52.3265 98.0191 52.8727 99.0913 52.8727C100.432 52.8727 102.551 52.3005 102.551 50.6617C102.551 49.3091 101.311 49.0229 100.158 49.0229ZM33.8271 49.9724C33.6841 49.9401 33.6711 50.0894 33.6711 50.0894C32.8267 51.9701 31.0241 53.3118 29.0149 53.8872C29.0149 53.8872 28.9239 53.9059 28.9239 54.0173V55.2138C28.9239 55.3891 29.0149 55.3439 29.0149 55.3439H30.1465C30.2739 55.3439 30.2375 55.4479 30.2375 55.4479V63.0434C30.2375 65.306 31.1786 66.477 33.619 66.477C35.7952 66.477 35.9555 66.4234 37.6769 65.1894C37.6769 65.1894 37.7872 65.1509 37.7289 65.0203C37.6822 64.9152 37.2348 63.8628 37.1957 63.7327C37.1479 63.5736 37.0396 63.6677 37.0396 63.6677C36.7249 63.8279 36.6515 63.8238 36.2463 63.8238C35.8441 63.8238 35.1538 63.6677 35.1538 62.8613V55.4479C35.1538 55.4479 35.1276 55.3439 35.2708 55.3439H37.0006C37.0006 55.3439 37.1114 55.399 37.1437 55.2398C37.182 55.0463 37.5079 53.432 37.5079 53.432C37.5079 53.432 37.5573 53.3149 37.4298 53.3149H35.2448C35.2448 53.3149 35.1538 53.3545 35.1538 53.2109V52.2745C35.1538 51.7162 35.1879 50.9811 35.3099 50.3626C35.3099 50.3626 35.378 50.2642 35.2188 50.2325C34.9977 50.1883 33.9708 50.0036 33.8271 49.9724ZM63.1687 50.9218C61.7203 50.9218 61.2402 51.312 60.9187 52.2745C60.9187 52.2745 60.7007 52.9065 60.6325 53.1328C60.5847 53.2926 60.4765 53.2499 60.4765 53.2499C59.7601 53.1391 58.9902 52.9248 57.6412 52.9248C54.7185 52.9248 51.6584 54.5375 51.6584 58.2832C51.6584 60.937 53.8413 62.467 56.0804 62.8613C56.0804 62.8613 56.4342 62.9144 56.0804 63.0174C55.4161 63.2099 54.0245 64.0366 52.4388 64.292C52.4388 64.292 52.2811 64.3091 52.3607 64.5001C52.3998 64.5937 52.8393 65.6982 52.907 65.8787C52.9548 66.0062 53.1151 65.9828 53.1151 65.9828C53.8559 65.8314 55.9853 66.026 56.3666 66.0738C56.7 66.116 56.3666 66.1649 56.3666 66.1649C55.2481 66.3553 53.9475 67.1653 53.9475 68.3759C53.9475 70.4823 56.3609 70.9771 58.7207 70.9771C60.3298 70.9771 64.2092 70.3008 64.2092 67.4655C64.2092 64.6229 59.8194 64.0699 57.6672 63.8628C57.3009 63.8279 57.6672 63.7588 57.6672 63.7588C60.8776 62.9654 64.6384 62.1158 64.6384 58.0751C64.6384 55.0317 62.1152 54.2254 62.1152 53.7051C62.1152 53.419 62.2879 53.1511 62.6095 53.1328C63.1672 53.1006 63.1905 53.1495 63.4678 53.3149C63.4678 53.3149 63.5501 53.4538 63.5979 53.2629C63.6262 53.15 64.1051 51.2615 64.1312 51.1169C64.1632 50.9416 64.0141 50.9869 64.0141 50.9869C63.7337 50.9598 63.4434 50.9218 63.1687 50.9218ZM19.0263 52.3265C18.9693 52.3437 18.9613 52.4175 18.9613 52.4175C18.9613 52.4175 17.4125 56.2252 17.3486 56.3843C17.2851 56.5435 17.4006 56.5534 17.4006 56.5534C17.4006 56.5534 18.6877 57.0097 18.8312 57.0737C18.9743 57.1371 19.0263 57.0347 19.0263 57.0347C19.7276 56.1716 20.432 55.63 21.9397 55.63C23.1196 55.63 23.7085 56.0722 23.7085 57.1387V57.5419C23.7085 57.685 23.6565 57.698 23.6565 57.698L20.0278 57.789C17.6414 57.789 15.7098 59.5063 15.7098 62.5232C15.7098 64.9428 17.5358 66.477 19.9758 66.477C21.4184 66.477 22.5577 65.8553 23.6044 65.0204C23.6044 65.0204 23.7777 64.7493 23.8255 65.0204C23.8734 65.2914 23.9749 65.6394 24.0466 65.9438C24.0841 66.1014 24.1897 66.0869 24.1897 66.0869H29.2751C29.2751 66.0869 29.4701 66.1514 29.4701 65.9438V64.6692C29.4701 64.6692 29.5081 64.5261 29.3011 64.5261H28.7158C28.5883 64.5261 28.6118 64.292 28.6118 64.292V57.2428C28.6118 54.1733 26.6338 52.9248 23.6305 52.9248C22.5692 52.9248 21.5479 53.072 20.548 53.458C20.548 53.458 20.3295 53.5917 20.457 53.2889C20.5179 53.1443 20.574 52.9768 20.574 52.9768C20.574 52.9768 20.6422 52.8327 20.483 52.7687C20.3077 52.7047 19.2937 52.3972 19.1044 52.3265C19.0725 52.3146 19.0453 52.3207 19.0263 52.3265ZM41.1495 52.3265C41.0924 52.3437 41.0845 52.4175 41.0845 52.4175C41.0845 52.4175 39.5358 56.2252 39.4718 56.3843C39.4083 56.5441 39.5238 56.5534 39.5238 56.5534C39.5238 56.5534 40.8109 57.0102 40.9544 57.0737C41.0981 57.1377 41.1495 57.0347 41.1495 57.0347C41.8503 56.1716 42.5422 55.63 44.0499 55.63C45.2298 55.63 45.8187 56.0722 45.8187 57.1387V57.5419C45.8187 57.6855 45.7796 57.698 45.7796 57.698L42.1509 57.789C39.7641 57.789 37.8329 59.5058 37.8329 62.5232C37.8329 64.9418 39.6585 66.477 42.0989 66.477C43.541 66.477 44.6684 65.8553 45.7146 65.0204C45.7146 65.0204 45.9003 64.7493 45.9487 65.0204C45.9966 65.2909 46.0974 65.6394 46.1698 65.9438C46.2068 66.1019 46.3128 66.0869 46.3128 66.0869H51.3852C51.3852 66.0869 51.5933 66.1508 51.5933 65.9438V64.6692C51.5933 64.6692 51.6312 64.5261 51.4242 64.5261H50.8389C50.7115 64.5261 50.7349 64.292 50.7349 64.292V57.2428C50.7349 54.1733 48.7444 52.9248 45.7406 52.9248C44.6798 52.9248 43.6716 53.072 42.6711 53.458C42.6711 53.458 42.4527 53.5917 42.5801 53.2889C42.641 53.1443 42.6842 52.9638 42.6842 52.9638C42.6842 52.9638 42.7523 52.8327 42.5931 52.7687C42.4178 52.7052 41.4164 52.3972 41.2275 52.3265C41.1954 52.3146 41.1686 52.3207 41.1495 52.3265ZM106.557 52.3265C106.5 52.3437 106.492 52.4175 106.492 52.4175C106.492 52.4175 104.943 56.2252 104.879 56.3843C104.816 56.5441 104.931 56.5534 104.931 56.5534C104.931 56.5534 106.218 57.0102 106.362 57.0737C106.505 57.1377 106.557 57.0347 106.557 57.0347C107.258 56.1716 107.949 55.63 109.457 55.63C110.637 55.63 111.226 56.0722 111.226 57.1387V57.5419C111.226 57.6855 111.187 57.698 111.187 57.698L107.558 57.789C105.171 57.789 103.24 59.5058 103.24 62.5232C103.24 64.9418 105.066 66.477 107.506 66.477C108.948 66.477 110.076 65.8553 111.122 65.0204C111.122 65.0204 111.308 64.7493 111.356 65.0204C111.404 65.2909 111.505 65.6394 111.577 65.9438C111.614 66.1019 111.72 66.0869 111.72 66.0869H116.792C116.792 66.0869 117 66.1508 117 65.9438V64.6692C117 64.6692 117.038 64.5261 116.831 64.5261H116.246C116.119 64.5261 116.142 64.292 116.142 64.292V57.2428C116.142 54.1733 114.152 52.9248 111.148 52.9248C110.087 52.9248 109.079 53.072 108.078 53.458C108.078 53.458 107.859 53.5917 107.987 53.2889C108.048 53.1443 108.091 52.9638 108.091 52.9638C108.091 52.9638 108.16 52.8327 108 52.7687C107.825 52.7052 106.824 52.3972 106.635 52.3265C106.603 52.3146 106.576 52.3207 106.557 52.3265ZM72.7281 52.9248C68.4647 52.9248 65.1717 55.4994 65.1717 59.6879C65.1717 63.9013 68.4647 66.477 72.7281 66.477C77.0191 66.477 80.3236 63.9013 80.3236 59.6879C80.3236 55.4994 77.0191 52.9248 72.7281 52.9248ZM90.7284 52.9248C88.9362 52.9248 87.5924 53.9195 86.2674 54.9277C86.2674 54.9277 86.1373 55.1092 86.1373 54.9017V53.0288C86.1373 52.8852 86.0072 52.9638 86.0072 52.9638L80.3497 54.4595C80.3497 54.4595 80.2326 54.4595 80.2326 54.6025V55.9031C80.2326 56.0467 80.3627 55.9812 80.3627 55.9812C80.3627 55.9812 80.8605 55.8631 81.052 55.7991C81.2429 55.7351 81.182 55.8901 81.182 55.8901V64.4091C81.182 64.4091 81.2187 64.5261 81.091 64.5261H80.3236C80.3236 64.5261 80.2326 64.484 80.2326 64.6432V65.9568C80.2326 66.1321 80.3236 66.0868 80.3236 66.0868H87.0347C87.0347 66.0868 87.1258 66.1076 87.1258 65.9958V64.6432C87.1258 64.484 86.9957 64.5261 86.9957 64.5261H86.1894C86.0619 64.5261 86.0853 64.4351 86.0853 64.4351V57.2297C86.0853 57.1023 86.1763 57.0346 86.1763 57.0346C86.7881 56.5196 87.4176 56.0462 88.2833 56.0462C89.007 56.0462 89.701 56.4369 89.701 57.1907V64.4351C89.701 64.4351 89.7376 64.5261 89.6099 64.5261H88.8296C88.8296 64.5261 88.6865 64.5157 88.6865 64.6432V65.9958C88.6865 66.1076 88.8036 66.0868 88.8036 66.0868H95.3976C95.3976 66.0868 95.5276 66.1321 95.5276 65.9568V64.6432C95.5276 64.5001 95.4106 64.5261 95.4106 64.5261H94.7083C94.597 64.5261 94.6173 64.396 94.6173 64.396V56.6185C94.6173 55.1873 94.1344 52.9248 90.7284 52.9248ZM10.2213 52.9377C9.03199 52.9377 8.12781 53.421 6.98276 54.1083C6.98276 54.1083 6.8527 54.1707 6.8527 54.0432V53.0678C6.8527 52.9247 6.72264 52.9637 6.72264 52.9637L1.11705 54.4074C1.11705 54.4074 1 54.4074 1 54.5505V55.8511C1 56.0264 1.13006 55.9681 1.13006 55.9681L1.78036 55.8121C1.78036 55.8121 1.93643 55.7408 1.93643 55.9161V68.3889C1.93643 68.3889 1.94268 68.571 1.76735 68.571H1.15607C1.15607 68.571 1 68.5486 1 68.74V69.9626C1 70.1379 1.2081 70.1317 1.2081 70.1317H8.45244C8.45244 70.1317 8.59551 70.0771 8.59551 69.9496V68.74C8.59551 68.5647 8.43944 68.571 8.43944 68.571H7.00878C6.84906 68.571 6.8527 68.3499 6.8527 68.3499V66.0998C6.8527 65.9724 6.95675 66.0218 6.95675 66.0218C7.67624 66.388 8.69019 66.49 9.45391 66.49C13.4228 66.49 15.7228 62.8223 15.7228 59.1546C15.7228 55.4349 13.3052 52.9377 10.2213 52.9377ZM102.265 52.9507C102.232 52.9478 102.2 52.9637 102.2 52.9637L96.5681 54.5114C96.5681 54.5114 96.4641 54.5166 96.4641 54.6285V55.8901C96.4641 56.0654 96.6201 55.9941 96.6201 55.9941C96.6201 55.9941 96.989 55.915 97.3095 55.864C97.4703 55.8375 97.4266 55.9868 97.4266 56.0982V64.396C97.4266 64.396 97.4692 64.526 97.3095 64.526H96.5161C96.5161 64.526 96.412 64.4808 96.412 64.6561V65.9827C96.412 66.1419 96.5161 66.0868 96.5161 66.0868H103.11C103.269 66.0868 103.214 65.9567 103.214 65.9567C103.214 65.9567 103.21 64.8626 103.214 64.6561C103.218 64.4803 103.097 64.526 103.097 64.526H102.447C102.288 64.526 102.33 64.409 102.33 64.409V53.0547C102.33 52.9749 102.297 52.9535 102.265 52.9507ZM57.4331 54.5635C59.4449 54.5635 60.2684 58.4908 60.2684 59.8959C60.2684 61.144 59.8688 61.6387 58.8768 61.6387C56.8655 61.6387 56.0284 57.7109 56.0284 56.3063C56.0284 55.0572 56.441 54.5635 57.4331 54.5635ZM71.8958 54.9016C74.6046 54.9016 75.4204 59.6884 75.4204 61.5607C75.4204 62.9653 75.0343 64.5001 73.5865 64.5001C70.8782 64.5001 70.0749 59.7133 70.0749 57.841C70.0749 56.878 70.0707 54.9016 71.8958 54.9016ZM7.62006 55.695C8.4514 55.695 10.8195 55.9296 10.8195 60.6113C10.8195 63.5251 10.113 64.5131 8.50447 64.5131C7.21739 64.5131 6.8527 63.5506 6.8527 62.4061V56.0201C6.8527 55.8443 6.99577 55.799 6.99577 55.799L7.62006 55.695ZM22.9281 59.3497H23.5784C23.7376 59.3497 23.7085 59.4537 23.7085 59.4537V61.8468C23.7085 62.8353 23.4593 63.7457 22.2258 63.7457C20.9112 63.7457 20.6261 62.6012 20.6261 61.5867C20.6261 60.2601 21.5869 59.3497 22.9281 59.3497ZM45.0513 59.3497H45.7016C45.8608 59.3497 45.8187 59.4537 45.8187 59.4537V61.8468C45.8187 62.8353 45.5825 63.7457 44.349 63.7457C43.0354 63.7457 42.7363 62.6017 42.7363 61.5867C42.7363 60.2601 43.7107 59.3497 45.0513 59.3497ZM110.459 59.3497H111.109C111.268 59.3497 111.226 59.4537 111.226 59.4537V61.8468C111.226 62.8353 110.99 63.7457 109.756 63.7457C108.443 63.7457 108.144 62.6017 108.144 61.5867C108.144 60.2601 109.118 59.3497 110.459 59.3497ZM58.2654 66.6591C58.2975 66.6592 58.3175 66.6721 58.3175 66.6721C59.2008 67.21 59.8392 67.6158 59.8392 68.766C59.8392 69.4158 59.4953 69.7285 58.8247 69.7285C58.0735 69.7285 57.7192 69.0256 57.7192 68.3759C57.7192 67.802 57.9257 66.9431 58.1224 66.7371C58.182 66.6744 58.2333 66.659 58.2654 66.6591Z"></path>
<path fill="white" d="M117.618 51.3125C117.533 51.2662 117.396 51.2433 117.207 51.2433H116.917V51.9159H117.224C117.368 51.9159 117.476 51.9019 117.547 51.8749C117.68 51.8239 117.746 51.7271 117.746 51.5841C117.746 51.4493 117.704 51.3588 117.618 51.3125ZM117.258 51.0092C117.492 51.0092 117.664 51.0321 117.773 51.0768C117.968 51.158 118.065 51.3166 118.065 51.5534C118.065 51.7209 118.004 51.8452 117.883 51.9243C117.818 51.9664 117.728 51.9966 117.613 52.0153C117.757 52.0387 117.863 52.0996 117.929 52.199C117.996 52.2978 118.03 52.3951 118.03 52.4893V52.6266C118.03 52.6698 118.031 52.7161 118.035 52.766C118.038 52.8155 118.044 52.8477 118.053 52.8633L118.065 52.8867H117.756C117.754 52.8805 117.753 52.8742 117.751 52.868C117.749 52.8617 117.748 52.855 117.746 52.8472L117.739 52.7868V52.6386C117.739 52.4221 117.679 52.2796 117.559 52.2099C117.488 52.1698 117.362 52.1501 117.183 52.1501H116.917V52.8867H116.599V51.0092L117.258 51.0092ZM116.25 50.9171C115.963 51.2038 115.82 51.5497 115.82 51.9555C115.82 52.3639 115.962 52.7119 116.247 53.0001C116.534 53.2878 116.882 53.4319 117.292 53.4319C117.701 53.4319 118.05 53.2878 118.336 53.0001C118.623 52.7119 118.766 52.3639 118.766 51.9555C118.766 51.5497 118.623 51.2038 118.336 50.9171C118.048 50.6294 117.7 50.4853 117.292 50.4853C116.885 50.4853 116.538 50.6294 116.25 50.9171ZM118.5 53.1635C118.167 53.4985 117.763 53.6655 117.289 53.6655C116.816 53.6655 116.414 53.4985 116.081 53.1635C115.751 52.8305 115.586 52.4268 115.586 51.9529C115.586 51.4831 115.753 51.082 116.087 50.7491C116.419 50.4172 116.819 50.2517 117.289 50.2517C117.763 50.2517 118.167 50.4172 118.5 50.7491C118.834 51.0805 119 51.4821 119 51.9529C119 52.4253 118.834 52.829 118.5 53.1635Z"></path>
</svg>
