<svg xmlns="http://www.w3.org/2000/svg" fill="none" viewBox="0 0 120 120" height="120" width="120">
<path fill="white" d="M59.5714 74.4618V74.4148C59.6183 74.3561 59.7006 74.3208 59.771 74.3326C60.1117 74.3208 60.4405 74.3208 60.7812 74.3326C60.8516 74.3326 60.9338 74.3561 60.9808 74.4148V74.4618H59.5714Z"></path>
<path fill="white" d="M60.9808 74.4148C60.511 74.4031 60.0412 74.4031 59.5714 74.4148C58.9253 74.3796 58.2793 74.356 57.6333 74.3091C55.9185 74.1799 54.2154 73.9214 52.5475 73.5338C46.7804 72.1948 41.718 69.5051 37.3017 65.5938C36.8906 65.2297 36.503 64.8538 36.1036 64.478C36.0097 64.3958 35.9274 64.2783 35.8805 64.1608C35.81 63.9964 35.8452 63.8202 35.9627 63.691C36.0801 63.5618 36.2681 63.5148 36.4325 63.5853C36.5382 63.6323 36.6439 63.6793 36.7379 63.738C40.9546 66.3455 45.5588 68.2483 50.3863 69.3759C52.0072 69.7518 53.6398 70.0454 55.2842 70.2568C57.6451 70.5505 60.0294 70.6562 62.4021 70.574C63.6823 70.5387 64.9508 70.4213 66.2194 70.2568C69.1793 69.881 72.1039 69.2115 74.9346 68.2718C76.4263 67.7785 77.8828 67.2147 79.304 66.557C79.5154 66.4395 79.7738 66.4043 80.0087 66.463C80.3963 66.557 80.6312 66.9563 80.5373 67.3439C80.5255 67.3909 80.502 67.4496 80.4785 67.4966C80.3846 67.6728 80.2554 67.8255 80.0909 67.9429C78.7402 69 77.2837 69.9279 75.7451 70.7032C72.8439 72.1714 69.7431 73.2167 66.5482 73.8157C64.7042 74.1446 62.8484 74.3443 60.9808 74.4148Z"></path>
<path fill="white" d="M43.5858 50.6064C43.8794 50.4303 44.1848 50.2423 44.5019 50.0779C45.3241 49.655 46.2403 49.4436 47.1682 49.4906C47.8377 49.5258 48.4484 49.7138 48.9183 50.2071C49.3646 50.6652 49.529 51.229 49.576 51.8397C49.5878 51.9689 49.5878 52.0981 49.5878 52.2391V58.3233C49.5878 58.8519 49.5173 58.9223 48.9887 58.9223H47.5558C47.4618 58.9223 47.3678 58.9223 47.2739 58.9106C47.1329 58.8988 47.0155 58.7814 46.992 58.6404C46.9685 58.5112 46.9685 58.382 46.9685 58.2528V52.8146C46.9802 52.5914 46.9567 52.38 46.898 52.1686C46.8041 51.8045 46.4752 51.5461 46.0993 51.5226C45.4063 51.4756 44.7133 51.6166 44.0791 51.9102C43.9851 51.9337 43.9264 52.0277 43.9381 52.1216V58.2998C43.9381 58.4173 43.9381 58.523 43.9146 58.6404C43.9146 58.8049 43.7854 58.9223 43.621 58.9223C43.4448 58.9341 43.2686 58.9341 43.0807 58.9341H41.8357C41.4011 58.9341 41.3071 58.8284 41.3071 58.3938V52.8381C41.3071 52.6384 41.2954 52.427 41.2484 52.2273C41.1662 51.828 40.8255 51.5461 40.4262 51.5226C39.7215 51.4756 39.005 51.6166 38.3707 51.9219C38.2767 51.9454 38.218 52.0512 38.2415 52.1451V58.4055C38.2415 58.8401 38.1475 58.9341 37.7129 58.9341H36.139C35.7279 58.9341 35.6222 58.8166 35.6222 58.4173V50.2658C35.6222 50.1719 35.634 50.0779 35.6575 49.9839C35.7045 49.843 35.8454 49.7608 35.9863 49.7608H37.4545C37.666 49.7608 37.7952 49.89 37.8656 50.0896C37.9244 50.2541 37.9596 50.4068 38.0183 50.5829C38.1358 50.5829 38.2063 50.5007 38.2885 50.4537C38.9345 50.0544 39.6157 49.7138 40.3792 49.5728C40.9665 49.4554 41.5538 49.4554 42.141 49.5728C42.6931 49.6903 43.1864 50.0192 43.5035 50.489C43.527 50.5242 43.5505 50.5477 43.574 50.5712C43.5623 50.5829 43.574 50.5829 43.5858 50.6064Z"></path>
<path fill="white" d="M67.9345 56.4558C68.005 56.2208 68.0755 55.9977 68.1459 55.7628C68.6862 53.9422 69.2265 52.1334 69.7668 50.3128L69.8373 50.1014C69.896 49.89 70.0957 49.7608 70.3071 49.7608H72.0925C72.5388 49.7608 72.6328 49.89 72.4801 50.3128L71.7753 52.1804C70.9884 54.2241 70.2014 56.2796 69.4145 58.3233C69.391 58.3938 69.3557 58.4643 69.3322 58.5347C69.25 58.7814 69.0034 58.9458 68.745 58.9223C68.2282 58.9106 67.7114 58.9106 67.1945 58.9223C66.8304 58.9341 66.619 58.7696 66.4898 58.4408C66.1962 57.6656 65.8908 56.8786 65.5971 56.1034C64.8924 54.2593 64.1759 52.4153 63.4712 50.5595C63.4007 50.4185 63.3537 50.2541 63.3185 50.1014C63.2833 49.8665 63.3655 49.749 63.6004 49.749C64.2699 49.7373 64.9394 49.749 65.5971 49.749C65.879 49.749 66.0082 49.9369 66.0787 50.1836C66.2079 50.6299 66.3371 51.088 66.4781 51.5343C66.9596 53.167 67.4295 54.8114 67.911 56.444C67.8993 56.4558 67.911 56.4558 67.9345 56.4558Z"></path>
<path fill="white" d="M26.2256 51.0527C26.3078 51.0292 26.3783 50.9823 26.4252 50.9118C26.6367 50.7004 26.8598 50.5007 27.0947 50.3128C27.7055 49.8429 28.469 49.608 29.2324 49.6668C29.5378 49.6785 29.6435 49.7725 29.667 50.0661C29.6905 50.4655 29.6788 50.8765 29.6788 51.2759C29.6905 51.4403 29.6788 51.593 29.6553 51.7575C29.6083 51.9689 29.5261 52.0511 29.3147 52.0746C29.1502 52.0863 28.9975 52.0746 28.8331 52.0629C28.0461 51.9924 27.2827 52.1451 26.5427 52.3917C26.3783 52.4505 26.3783 52.5679 26.3783 52.6971V58.335C26.3783 58.4407 26.3783 58.5347 26.3665 58.6404C26.3548 58.7931 26.2373 58.9105 26.0846 58.9105C26.0024 58.9223 25.9084 58.9223 25.8262 58.9223H24.2993C24.2171 58.9223 24.1231 58.9223 24.0409 58.9105C23.8882 58.8988 23.7707 58.7696 23.759 58.6169C23.7472 58.5229 23.7472 58.429 23.7472 58.335V50.348C23.7472 49.8077 23.806 49.749 24.3463 49.749H25.4738C25.7792 49.749 25.9202 49.8547 26.0024 50.1483C26.0846 50.442 26.1551 50.7356 26.2256 51.0527Z"></path>
<path fill="white" d="M81.1713 62.9628C81.9466 62.9863 82.71 63.0333 83.4617 63.233C83.6732 63.2917 83.8728 63.3622 84.0725 63.4561C84.3427 63.5619 84.5189 63.8203 84.5541 64.1022C84.6011 64.431 84.6128 64.7717 84.5893 65.1123C84.4366 67.1208 83.8141 69.0588 82.7805 70.7854C82.4046 71.4079 81.9466 71.9717 81.418 72.465C81.3123 72.5707 81.1831 72.653 81.0421 72.6999C80.819 72.7587 80.678 72.6412 80.6663 72.418C80.678 72.3006 80.7015 72.1831 80.7485 72.0657C81.1596 70.9616 81.559 69.8692 81.8761 68.7299C82.064 68.1074 82.1932 67.4731 82.2754 66.8271C82.2989 66.5922 82.3107 66.3573 82.2872 66.1224C82.2754 65.723 82.017 65.3824 81.6294 65.265C81.2653 65.1475 80.8895 65.077 80.5018 65.0535C79.4212 65.0066 78.3407 65.0535 77.2718 65.1945L75.8506 65.3707C75.6979 65.3824 75.5569 65.3707 75.4747 65.2297C75.3925 65.0888 75.4277 64.9478 75.51 64.8069C75.6039 64.6777 75.7214 64.5602 75.8623 64.478C76.7315 63.8555 77.7064 63.4796 78.74 63.233C79.5387 63.0685 80.3492 62.9863 81.1713 62.9628Z"></path>
<path fill="white" d="M76.2503 58.57C76.2268 58.8049 76.1211 58.9106 75.8862 58.9223C75.2519 58.9341 74.6294 58.9341 73.9952 58.9223C73.7602 58.9223 73.6545 58.8049 73.631 58.5817C73.6193 58.5113 73.6193 58.429 73.6193 58.3586V50.2306C73.631 49.8665 73.725 49.7608 74.0891 49.7608H75.7805C76.1446 49.7608 76.2503 49.8665 76.2503 50.2306V58.57Z"></path>
<path fill="white" d="M30.8063 54.318V50.1483C30.8181 49.8664 30.9238 49.7607 31.2057 49.749C31.8165 49.7372 32.4272 49.7372 33.038 49.749C33.3082 49.749 33.3904 49.8312 33.4139 50.1014C33.4256 50.2071 33.4256 50.301 33.4256 50.4067V58.2293C33.4256 58.3585 33.4139 58.4877 33.4021 58.6169C33.3904 58.7696 33.2729 58.8753 33.1202 58.8871C33.0498 58.8988 32.991 58.8988 32.9206 58.8988H31.2879C31.2292 58.8988 31.1822 58.8988 31.1235 58.8871C30.959 58.8753 30.8181 58.7461 30.8063 58.5817C30.7946 58.4877 30.7946 58.3938 30.7946 58.2998C30.8063 56.996 30.8063 55.657 30.8063 54.318Z"></path>
<path fill="white" d="M32.169 45.5441C32.3569 45.5323 32.5449 45.5676 32.721 45.6263C33.3553 45.8377 33.6842 46.3897 33.6255 47.1062C33.5785 47.717 33.1204 48.2103 32.5096 48.3043C32.2512 48.3513 31.9811 48.3513 31.7227 48.3043C31.0532 48.1751 30.5598 47.6818 30.6068 46.8361C30.6773 46.0021 31.2293 45.5441 32.169 45.5441Z"></path>
<path fill="white" d="M74.9467 45.5441C75.1816 45.5206 75.4165 45.5676 75.6397 45.6615C76.0978 45.8377 76.4149 46.2606 76.4384 46.7539C76.5323 47.8227 75.8159 48.363 74.8645 48.3395C74.7353 48.3395 74.6061 48.316 74.4769 48.2925C73.7486 48.1164 73.3728 47.5526 73.4432 46.7421C73.502 46.0961 74.007 45.6145 74.7 45.5558C74.7822 45.5441 74.8645 45.5323 74.9467 45.5441Z"></path>
<path fill="white" d="M22.0089 53.3549C21.9619 52.7441 21.7975 52.1451 21.5508 51.5931C21.0692 50.5829 20.3293 49.843 19.2017 49.5846C17.9097 49.3027 16.7469 49.5846 15.6897 50.3715C15.6193 50.442 15.5371 50.5007 15.4431 50.5477C15.4196 50.536 15.3961 50.5242 15.3961 50.5125C15.3609 50.395 15.3374 50.2776 15.3021 50.1601C15.2082 49.8665 15.0907 49.7607 14.7736 49.7607C14.4212 49.7607 14.0571 49.7725 13.7047 49.7607C13.4346 49.749 13.1879 49.7842 13 49.9957C13 54.1066 13 58.2293 13.0117 62.3285C13.1644 62.5752 13.3994 62.6222 13.6695 62.6104C14.0923 62.5987 14.5152 62.6104 14.938 62.6104C15.4313 62.6104 15.678 62.3677 15.678 61.8822V58.5347C15.678 58.4525 15.6428 58.3585 15.725 58.2881C16.3123 58.7461 17.0287 59.028 17.7687 59.0985C18.8023 59.2042 19.742 58.9458 20.5289 58.2411C21.1045 57.7125 21.5273 57.0313 21.7505 56.2796C22.0676 55.3164 22.0911 54.3415 22.0089 53.3549ZM19.2017 55.7862C19.1195 56.1504 18.9315 56.4792 18.6614 56.7259C18.356 56.9843 17.9801 57.137 17.5808 57.137C16.9818 57.1722 16.3945 57.043 15.8659 56.7611C15.7367 56.7024 15.6545 56.5732 15.6663 56.4323V54.3063C15.6663 53.6016 15.678 52.8968 15.6663 52.1921C15.6545 52.0276 15.7485 51.8867 15.9012 51.828C16.5472 51.5226 17.2167 51.3816 17.9214 51.5226C18.4147 51.5931 18.8376 51.9102 19.0372 52.3683C19.2134 52.7441 19.3191 53.1552 19.3426 53.5663C19.4131 54.318 19.4131 55.0698 19.2017 55.7862Z"></path>
<path fill="white" d="M106.988 53.6133V53.6603C106.941 53.6133 106.918 53.5428 106.941 53.4841V53.3901C106.941 53.3901 106.941 53.3784 106.953 53.3784H106.941V53.2609H106.965C106.965 53.2492 106.953 53.2492 106.953 53.2374C106.93 53.0143 106.883 52.7911 106.824 52.5797C106.389 51.0293 105.414 50.0074 103.829 49.6081C103.089 49.4319 102.337 49.4084 101.585 49.5258C99.9996 49.7607 98.8603 50.6064 98.3082 52.1099C97.7679 53.5428 97.7797 55.1167 98.32 56.5497C98.7898 57.8535 99.7295 58.6757 101.08 59.0163C101.797 59.1925 102.548 59.2395 103.288 59.1337C105.755 58.8401 106.777 56.9726 106.941 55.3517H106.93V55.1872C106.918 55.1167 106.906 55.058 106.977 55.011V55.0345C106.977 55.0228 106.988 54.9993 107 54.9875V53.6368C107 53.6251 106.988 53.6251 106.988 53.6133ZM104.169 55.845C104.099 56.0916 103.993 56.3148 103.84 56.5262C103.582 56.8903 103.171 57.1252 102.725 57.1605C102.501 57.184 102.278 57.184 102.055 57.137C101.562 57.043 101.151 56.7141 100.951 56.2561C100.775 55.892 100.669 55.4926 100.634 55.0933C100.575 54.4003 100.563 53.7073 100.728 53.026C100.787 52.7559 100.904 52.4857 101.045 52.2508C101.303 51.828 101.75 51.5578 102.243 51.5226C102.466 51.4991 102.689 51.4991 102.913 51.5461C103.382 51.64 103.77 51.9454 103.981 52.38C104.181 52.7911 104.299 53.2492 104.322 53.7073C104.334 53.9187 104.345 54.1301 104.334 54.3415C104.369 54.8583 104.31 55.3634 104.169 55.845Z"></path>
<path fill="white" d="M86.398 45.6263H84.7654C84.319 45.6263 84.2368 45.7085 84.2368 46.1548V49.9604C84.2368 50.0426 84.272 50.1249 84.2133 50.2071C84.1076 50.1953 84.0489 50.1249 83.9667 50.0779C82.7451 49.3614 81.4649 49.2322 80.1728 49.8312C79.2684 50.2541 78.7046 51.0175 78.3405 51.9219C77.9882 52.7911 77.9059 53.7073 77.9294 54.6352C77.9294 55.5044 78.1291 56.3618 78.5167 57.137C78.963 57.9944 79.609 58.6522 80.5487 58.9341C81.829 59.3334 83.027 59.1337 84.1194 58.3233C84.2016 58.2763 84.2486 58.1941 84.3543 58.1706C84.413 58.2998 84.46 58.4408 84.4835 58.5817C84.5305 58.7696 84.6949 58.8988 84.8946 58.8988H85.1765C85.5993 58.8988 86.0104 58.9106 86.4215 58.8988C86.7504 58.8988 86.8443 58.7931 86.8561 58.4525V46.0726C86.8443 45.7085 86.7504 45.6263 86.398 45.6263ZM84.2486 54.2711V56.4088C84.272 56.5497 84.1898 56.6789 84.0606 56.7376C83.4968 57.0548 82.8508 57.184 82.2166 57.09C81.6763 57.0313 81.2064 56.7024 80.9598 56.2208C80.7719 55.845 80.6661 55.4456 80.6309 55.0345C80.5369 54.2946 80.5957 53.5428 80.7719 52.8264C80.8306 52.6267 80.9011 52.4387 81.0068 52.2508C81.2534 51.7927 81.7233 51.4991 82.2401 51.4639C82.8626 51.4051 83.4851 51.5226 84.0489 51.781C84.1898 51.828 84.2721 51.9689 84.2603 52.1216C84.2368 52.8498 84.2486 53.5546 84.2486 54.2711Z"></path>
<path fill="white" d="M53.875 55.0815C54.7559 55.2459 55.6603 55.2577 56.5412 55.1167C57.0581 55.0462 57.5514 54.8935 58.0094 54.6469C58.538 54.3415 58.9256 53.9187 59.09 53.3314C59.5011 51.8514 58.8669 50.3597 57.3282 49.8077C56.5765 49.561 55.7778 49.4788 54.9908 49.5845C53.135 49.7959 51.9252 50.8178 51.3732 52.5914C50.9856 53.8012 51.0325 55.0345 51.3497 56.256C51.7608 57.8182 52.7944 58.7461 54.3566 59.075C55.2492 59.2747 56.1536 59.2394 57.0463 59.0985C57.5161 59.0163 57.986 58.8988 58.4323 58.7226C58.7024 58.6169 58.8434 58.4525 58.8316 58.1471C58.8199 57.8652 58.8316 57.5715 58.8316 57.2779C58.8316 56.9255 58.6907 56.8198 58.3501 56.902C58.0094 56.9843 57.6806 57.0547 57.3399 57.1252C56.6117 57.2779 55.86 57.2779 55.1318 57.1487C54.1334 56.949 53.4874 56.0916 53.5461 55.0345C53.6518 55.0462 53.7693 55.058 53.875 55.0815ZM53.5813 53.2844C53.6166 53.0025 53.6988 52.7324 53.8045 52.4739C54.1569 51.6165 54.8969 51.3229 55.6486 51.3699C55.86 51.3816 56.0714 51.4286 56.2711 51.5108C56.5765 51.64 56.7762 51.9219 56.8114 52.2508C56.8466 52.4505 56.8349 52.6619 56.7762 52.8616C56.6352 53.2844 56.2946 53.4606 55.8835 53.5428C55.6368 53.6015 55.3784 53.625 55.12 53.6015C54.6619 53.6015 54.1921 53.5663 53.734 53.4958C53.6166 53.4802 53.5657 53.4097 53.5813 53.2844Z"></path>
<path fill="white" d="M93.4927 55.199C94.1739 55.152 94.8552 55.0228 95.4659 54.6939C96.0885 54.3885 96.523 53.813 96.6523 53.1318C96.7345 52.7089 96.7345 52.2626 96.6405 51.8397C96.3938 50.7826 95.7243 50.1249 94.7142 49.7843C94.1504 49.6081 93.5514 49.5376 92.9641 49.5611C90.9909 49.6081 89.4874 50.6065 88.8767 52.5797C88.4656 53.8835 88.5243 55.2107 88.9236 56.5145C89.3347 57.8535 90.2744 58.6639 91.6134 59.0281C92.1889 59.169 92.7879 59.2277 93.3752 59.2042C94.2327 59.1925 95.0901 59.0281 95.9005 58.7227C96.2411 58.5935 96.3234 58.476 96.3234 58.1119V57.2662C96.3116 56.9256 96.1707 56.8081 95.8301 56.8904C95.5717 56.9608 95.325 57.0196 95.0666 57.0783C94.2796 57.2662 93.4574 57.3015 92.6587 57.1605C91.86 57.0078 91.3197 56.5497 91.1083 55.751C91.0496 55.5161 91.0026 55.2812 90.9791 55.0346C91.0378 55.0346 91.0966 55.0346 91.1436 55.058C91.9188 55.199 92.7057 55.2577 93.4927 55.199ZM91.0378 53.3197C91.1201 52.8616 91.2258 52.4153 91.5077 52.0394C91.9423 51.4639 92.5413 51.2994 93.2225 51.3699C93.2813 51.3699 93.3282 51.3934 93.387 51.3934C94.2092 51.5226 94.4088 52.1804 94.2561 52.8146C94.1387 53.2845 93.7511 53.4606 93.3165 53.5429C93.0816 53.5898 92.8349 53.6133 92.5883 53.6016C92.1067 53.5898 91.6369 53.5546 91.1671 53.4841C91.0613 53.4724 91.0144 53.4254 91.0378 53.3197Z"></path>
</svg>
