<svg xmlns="http://www.w3.org/2000/svg" fill="none" viewBox="0 0 120 120" height="120" width="120">
<path fill="white" d="M84.498 52.6524V54.4907H86.2935C87.0773 54.4907 87.5925 54.9853 87.8859 55.3048C88.121 55.5679 93.2911 61.4299 93.4149 61.584C93.5392 61.7383 93.5392 61.74 93.5392 61.838V64.7426C93.5388 64.8758 93.5256 65.0086 93.4995 65.1392C93.4628 65.2236 93.4081 65.2989 93.3393 65.3599C93.2705 65.421 93.1893 65.4664 93.1012 65.4929C92.9315 65.5141 92.7607 65.5248 92.5897 65.5248L90.7925 65.5226V67.3611H100.873V65.5226H98.976C98.8062 65.5234 98.6365 65.5127 98.4681 65.4904C98.3802 65.4641 98.2991 65.4188 98.2306 65.3578C98.1621 65.2967 98.1079 65.2214 98.0717 65.137C98.0453 65.0065 98.0316 64.8736 98.0307 64.7404V61.8374C98.0195 61.742 98.0434 61.6458 98.0981 61.5668L103.691 55.1862C104.204 54.6145 104.471 54.4904 105.145 54.4904H107V52.6518H98.6924V54.4865H99.9461C100.013 54.4824 100.08 54.4978 100.139 54.5307C100.198 54.5636 100.246 54.6126 100.278 54.6721C100.309 54.7315 100.323 54.7988 100.318 54.8659C100.312 54.9331 100.288 54.9972 100.247 55.0508C100.221 55.0883 96.7689 59.1473 96.7256 59.1867C96.6823 59.2261 96.6545 59.2167 96.6223 59.1737C96.5904 59.1304 93.18 55.0508 93.18 55.0508C92.9394 54.7555 93.1273 54.4868 93.4096 54.4868H94.6314V52.6521L84.498 52.6524Z"></path>
<path fill="white" d="M59.7745 52.6524V54.4907H61.3835C62.5454 54.4907 62.6245 55.1377 62.6245 55.7017V64.3066C62.6245 64.8215 62.6545 65.5284 61.9139 65.5284H59.9283V67.365H68.4055V65.5284H66.3377C65.5122 65.5284 65.4745 65.1509 65.4653 64.3479V56.9762L77.1081 67.3653H80.0691L79.9128 55.632C79.9281 54.7746 79.9806 54.489 80.8679 54.489H82.7234V52.6524H74.0755V54.489H75.9745C76.8469 54.489 76.9932 54.8254 77.0043 55.632L77.1081 61.7722L67.001 52.6524H59.7745Z"></path>
<path fill="white" d="M21.601 51.7273C19.7794 51.7273 17.7097 52.0695 15.961 52.8553C14.329 53.5847 13 54.756 13 56.6978C12.9975 57.7149 13.3843 58.6944 14.0811 59.4354C14.553 59.8714 15.3143 60.6123 17.3036 61.0483C18.1926 61.2365 20.0933 61.539 21.9866 61.7383C23.8795 61.9376 25.7147 62.1144 26.4664 62.3156C27.0645 62.4677 28.0701 62.6748 28.0701 63.8028C28.0701 64.9308 27.0118 65.2689 26.8275 65.3424C26.6434 65.4157 25.3722 65.9986 23.0899 65.9986C21.5777 65.9566 20.0793 65.6989 18.64 65.2333C17.7885 64.9286 16.8956 64.5283 16.0626 63.5111C15.7264 63.0322 15.5399 62.4643 15.5266 61.8793H13.4588V67.6698H15.7562V66.8859C15.7559 66.8278 15.771 66.7706 15.8001 66.7203C15.8292 66.67 15.8712 66.6283 15.9217 66.5996C15.9723 66.5709 16.0296 66.5562 16.0877 66.5569C16.1458 66.5577 16.2027 66.5739 16.2525 66.6039C17.3348 67.0749 18.4605 67.4388 19.6137 67.6906C20.8208 67.9423 21.601 68.125 23.1012 68.125C24.6843 68.155 26.262 67.9322 27.7748 67.4649C28.7794 67.1895 29.7219 66.7243 30.5515 66.0943C31.0181 65.7359 31.3952 65.2742 31.6533 64.7455C31.9113 64.2167 32.0432 63.6353 32.0387 63.047C32.0467 61.9292 31.6154 60.8529 30.8377 60.0499C30.4051 59.6303 29.904 59.2876 29.356 59.0368C28.767 58.7707 28.1554 58.5574 27.5286 58.3996C26.3367 58.1081 23.6597 57.7434 22.3796 57.6154C21.037 57.4767 18.7075 57.2827 17.7771 56.9951C17.4951 56.9066 16.9197 56.6343 16.9197 55.9667C16.9197 55.4913 17.1828 55.0888 17.7019 54.7635C18.5271 54.2467 20.193 53.925 21.9299 53.925C23.6114 53.9046 25.2791 54.2303 26.8294 54.8818C27.2459 55.0633 27.6375 55.2971 27.9949 55.5776C28.5775 56.0752 28.9809 56.7501 29.1434 57.4989H30.9992V52.4587H28.9314V53.0432C28.9314 53.2314 28.7432 53.4795 28.3671 53.2747C27.4345 52.7895 24.8141 51.7406 21.601 51.7273Z"></path>
<path fill="white" d="M46.4893 51.7287C43.2313 51.7287 39.7718 52.8567 37.8166 54.6331C37.0713 55.3117 36.4762 56.1389 36.0699 57.0615C35.6635 57.984 35.4548 58.9814 35.4571 59.9894C35.4454 61.0016 35.6498 62.0046 36.0567 62.9315C36.4635 63.8584 37.0634 64.6878 37.8164 65.3644C39.9222 67.2573 43.0809 68.2726 46.4893 68.2726C49.9033 68.2726 53.1293 67.2687 55.1844 65.3644C55.915 64.6719 56.4979 63.8387 56.8978 62.915C57.2977 61.9912 57.5065 60.996 57.5115 59.9894C57.5216 58.9838 57.3195 57.9875 56.9186 57.0652C56.5176 56.143 55.9267 55.3157 55.1844 54.6372C52.9789 52.6369 50.0931 51.7287 46.4893 51.7287ZM46.4893 53.8792C48.2715 53.8792 49.9879 54.5204 51.144 55.6581C52.2625 56.7597 52.8471 58.3163 52.8471 59.9819C52.8471 61.7267 52.3153 63.1406 51.1442 64.306C49.9729 65.4718 48.2959 66.0957 46.4893 66.0957C44.6957 66.0957 42.9829 65.4585 41.8268 64.306C41.2739 63.7323 40.8397 63.0549 40.5493 62.3128C40.259 61.5708 40.1181 60.7786 40.1348 59.9819C40.1348 58.3238 40.7119 56.7617 41.8268 55.6581C42.9829 54.5148 44.7071 53.8792 46.4893 53.8792Z"></path>
</svg>
