<svg xmlns="http://www.w3.org/2000/svg" fill="none" viewBox="0 0 120 120" height="120" width="120">
<path fill="white" d="M17.1564 46.2529V51.9312H13V61.0446H17.1564V63.4731C17.1564 70.2696 21.24 73.7445 27.5678 73.7445C30.0029 73.7445 32.4732 73.2207 34.6828 72.1374V64.8906C33.5968 65.2635 32.4729 65.4881 31.3492 65.4881C29.3275 65.4881 27.4923 64.5554 27.4923 61.866V46.2529H17.1564ZM68.1644 46.2543V73.1483H78.5003V69.3766C79.9227 71.5055 82.1322 73.7472 85.9147 73.7472C91.0084 73.7472 95.0886 69.9356 95.0886 62.5404C95.0886 55.1452 91.0084 51.335 85.9147 51.335C82.1322 51.335 79.9227 53.5766 78.5003 55.7057V46.2543L68.1644 46.2543ZM34.0455 51.335C30.9001 51.335 28.804 53.5393 28.804 56.5641C28.804 59.589 30.9001 61.7919 34.0455 61.7919C37.1908 61.7919 39.2883 59.589 39.2883 56.5641C39.2883 53.5393 37.1908 51.335 34.0455 51.335ZM40.6371 51.9312V65.6776C40.6371 71.5043 44.1195 73.7458 48.351 73.7458C52.5824 73.7458 54.5681 72.0646 56.1032 69.3752V73.1483H66.1398V51.9312H55.8038V64.8919C55.8038 66.9835 54.6434 67.7695 53.2586 67.7695C51.9471 67.7695 50.9731 66.9835 50.9731 64.8919V51.9312H40.6371ZM96.6641 51.9312V73.1483H107V51.9312H96.6641ZM81.4589 57.3113C83.5562 57.3113 84.7554 59.1783 84.7554 62.5404C84.7554 65.9007 83.5934 67.7695 81.4589 67.7695C79.3245 67.7695 78.1638 65.9007 78.1638 62.5404C78.1638 59.1801 79.362 57.3113 81.4589 57.3113Z"></path>
</svg>
